<mxGraphModel dx="1420" dy="850" grid="1" gridSize="10" guides="1" tooltips="1" connect="1" arrows="1" fold="1" page="1" pageScale="1" pageWidth="827" pageHeight="1169" math="0" shadow="0">
    <root>
        <mxCell id="0" />
        <mxCell id="1" parent="0" />
        <!-- Actors -->
        <mxCell value="기안자" style="shape=actor;whiteSpace=wrap;html=1;" vertex="1" id="2" parent="1">
            <mxGeometry x="50" y="100" width="30" height="60" as="geometry" />
        </mxCell>
        <mxCell value="결재자" style="shape=actor;whiteSpace=wrap;html=1;" vertex="1" id="3" parent="1">
            <mxGeometry x="250" y="100" width="30" height="60" as="geometry" />
        </mxCell>
        <mxCell value="대결자" style="shape=actor;whiteSpace=wrap;html=1;" vertex="1" id="4" parent="1">
            <mxGeometry x="450" y="100" width="30" height="60" as="geometry" />
        </mxCell>
        <mxCell value="인사관리자" style="shape=actor;whiteSpace=wrap;html=1;" vertex="1" id="5" parent="1">
            <mxGeometry x="650" y="100" width="30" height="60" as="geometry" />
        </mxCell>
        <!-- Use cases -->
        <mxCell value="결재 문서 작성" style="shape=ellipse;whiteSpace=wrap;html=1;aspect=fixed;" vertex="1" id="6" parent="1">
            <mxGeometry x="50" y="300" width="160" height="80" as="geometry" />
        </mxCell>
        <mxCell value="양식 선택" style="shape=ellipse;whiteSpace=wrap;html=1;aspect=fixed;" vertex="1" id="7" parent="1">
            <mxGeometry x="50" y="400" width="160" height="80" as="geometry" />
        </mxCell>
        <mxCell value="임시 저장" style="shape=ellipse;whiteSpace=wrap;html=1;aspect=fixed;" vertex="1" id="8" parent="1">
            <mxGeometry x="50" y="500" width="160" height="80" as="geometry" />
        </mxCell>
        <!-- Additional use cases and edges -->
    </root>
</mxGraphModel>
